<mxfile host="app.diagrams.net" agent="Mozilla/5.0 (Macintosh; Intel Mac OS X 10_15_7) AppleWebKit/537.36 (KHTML, like Gecko) Chrome/140.0.0.0 Safari/537.36" version="28.2.6">
  <diagram name="Pagina-1" id="28W2PzgOokeG23-Xse1T">
    <mxGraphModel dx="2386" dy="866" grid="1" gridSize="10" guides="1" tooltips="1" connect="1" arrows="1" fold="1" page="1" pageScale="1" pageWidth="827" pageHeight="1169" math="0" shadow="0">
      <root>
        <mxCell id="0" />
        <mxCell id="1" parent="0" />
        <mxCell id="xelcXqQ4Fr27mkAW_xC8-2" value="" style="rounded=1;whiteSpace=wrap;html=1;fillColor=light-dark(#3A0412,#3A0412);" vertex="1" parent="1">
          <mxGeometry x="8" y="440" width="190" height="100" as="geometry" />
        </mxCell>
        <mxCell id="xelcXqQ4Fr27mkAW_xC8-1" value="&lt;h1 style=&quot;margin-top: 0px;&quot;&gt;&lt;font style=&quot;font-size: 18px;&quot;&gt;Sort trie nodes&lt;/font&gt;&lt;/h1&gt;" style="text;html=1;whiteSpace=wrap;overflow=hidden;rounded=0;align=center;" vertex="1" parent="1">
          <mxGeometry x="8" y="465" width="190" height="50" as="geometry" />
        </mxCell>
        <mxCell id="xelcXqQ4Fr27mkAW_xC8-3" value="" style="rounded=1;whiteSpace=wrap;html=1;fillColor=light-dark(#3A0412,#3A0412);" vertex="1" parent="1">
          <mxGeometry x="207" y="440" width="193" height="100" as="geometry" />
        </mxCell>
        <mxCell id="xelcXqQ4Fr27mkAW_xC8-4" value="&lt;h1 style=&quot;margin-top: 0px;&quot;&gt;&lt;font style=&quot;font-size: 18px;&quot;&gt;Compute equivalency classes for trie nodes&lt;/font&gt;&lt;/h1&gt;" style="text;html=1;whiteSpace=wrap;overflow=hidden;rounded=0;align=center;" vertex="1" parent="1">
          <mxGeometry x="208" y="450" width="190" height="80" as="geometry" />
        </mxCell>
        <mxCell id="xelcXqQ4Fr27mkAW_xC8-5" value="" style="rounded=1;whiteSpace=wrap;html=1;fillColor=light-dark(#3A0412,#3A0412);" vertex="1" parent="1">
          <mxGeometry x="408" y="440" width="193" height="100" as="geometry" />
        </mxCell>
        <mxCell id="xelcXqQ4Fr27mkAW_xC8-6" value="&lt;h1 style=&quot;margin-top: 0px;&quot;&gt;&lt;font style=&quot;font-size: 18px;&quot;&gt;Partition nodes into p subsequences&lt;/font&gt;&lt;/h1&gt;&lt;div&gt;&lt;font style=&quot;font-size: 18px;&quot;&gt;&lt;br&gt;&lt;/font&gt;&lt;/div&gt;" style="text;html=1;whiteSpace=wrap;overflow=hidden;rounded=0;align=center;" vertex="1" parent="1">
          <mxGeometry x="410" y="450" width="190" height="80" as="geometry" />
        </mxCell>
        <mxCell id="xelcXqQ4Fr27mkAW_xC8-7" value="" style="rounded=1;whiteSpace=wrap;html=1;fillColor=light-dark(#3A0412,#3A0412);" vertex="1" parent="1">
          <mxGeometry x="610" y="440" width="190" height="100" as="geometry" />
        </mxCell>
        <mxCell id="xelcXqQ4Fr27mkAW_xC8-8" value="&lt;h1 style=&quot;margin-top: 0px;&quot;&gt;&lt;span style=&quot;font-size: 18px;&quot;&gt;Merge consecutive equivalent states&lt;/span&gt;&lt;/h1&gt;" style="text;html=1;whiteSpace=wrap;overflow=hidden;rounded=0;align=center;" vertex="1" parent="1">
          <mxGeometry x="610" y="450" width="190" height="80" as="geometry" />
        </mxCell>
        <mxCell id="xelcXqQ4Fr27mkAW_xC8-10" value="1" style="ellipse;whiteSpace=wrap;html=1;aspect=fixed;" vertex="1" parent="1">
          <mxGeometry x="-120" y="200" width="40" height="40" as="geometry" />
        </mxCell>
        <mxCell id="xelcXqQ4Fr27mkAW_xC8-11" value="5" style="ellipse;whiteSpace=wrap;html=1;aspect=fixed;rotation=0;" vertex="1" parent="1">
          <mxGeometry x="-80" y="260" width="40" height="40" as="geometry" />
        </mxCell>
        <mxCell id="xelcXqQ4Fr27mkAW_xC8-12" value="2" style="ellipse;whiteSpace=wrap;html=1;aspect=fixed;" vertex="1" parent="1">
          <mxGeometry x="-160" y="260" width="40" height="40" as="geometry" />
        </mxCell>
        <mxCell id="xelcXqQ4Fr27mkAW_xC8-13" value="4" style="ellipse;whiteSpace=wrap;html=1;aspect=fixed;rotation=0;" vertex="1" parent="1">
          <mxGeometry x="-120" y="320" width="40" height="40" as="geometry" />
        </mxCell>
        <mxCell id="xelcXqQ4Fr27mkAW_xC8-15" value="" style="endArrow=none;html=1;rounded=0;exitX=1;exitY=1;exitDx=0;exitDy=0;entryX=0.274;entryY=0.026;entryDx=0;entryDy=0;entryPerimeter=0;" edge="1" parent="1" source="xelcXqQ4Fr27mkAW_xC8-10" target="xelcXqQ4Fr27mkAW_xC8-11">
          <mxGeometry width="50" height="50" relative="1" as="geometry">
            <mxPoint x="390" y="380" as="sourcePoint" />
            <mxPoint x="440" y="330" as="targetPoint" />
          </mxGeometry>
        </mxCell>
        <mxCell id="xelcXqQ4Fr27mkAW_xC8-16" value="" style="endArrow=none;html=1;rounded=0;exitX=0.7;exitY=0.075;exitDx=0;exitDy=0;entryX=0;entryY=1;entryDx=0;entryDy=0;exitPerimeter=0;" edge="1" parent="1" source="xelcXqQ4Fr27mkAW_xC8-12" target="xelcXqQ4Fr27mkAW_xC8-10">
          <mxGeometry width="50" height="50" relative="1" as="geometry">
            <mxPoint x="-80" y="250" as="sourcePoint" />
            <mxPoint x="-64" y="279" as="targetPoint" />
          </mxGeometry>
        </mxCell>
        <mxCell id="xelcXqQ4Fr27mkAW_xC8-17" value="" style="endArrow=none;html=1;rounded=0;exitX=1;exitY=1;exitDx=0;exitDy=0;entryX=0.234;entryY=0.053;entryDx=0;entryDy=0;entryPerimeter=0;" edge="1" parent="1" source="xelcXqQ4Fr27mkAW_xC8-12" target="xelcXqQ4Fr27mkAW_xC8-13">
          <mxGeometry width="50" height="50" relative="1" as="geometry">
            <mxPoint x="10" y="260" as="sourcePoint" />
            <mxPoint x="26" y="289" as="targetPoint" />
          </mxGeometry>
        </mxCell>
        <mxCell id="xelcXqQ4Fr27mkAW_xC8-18" value="3" style="ellipse;whiteSpace=wrap;html=1;aspect=fixed;rotation=0;" vertex="1" parent="1">
          <mxGeometry x="-194" y="320" width="40" height="40" as="geometry" />
        </mxCell>
        <mxCell id="xelcXqQ4Fr27mkAW_xC8-19" value="" style="endArrow=none;html=1;rounded=0;exitX=0;exitY=1;exitDx=0;exitDy=0;entryX=0.663;entryY=0.026;entryDx=0;entryDy=0;entryPerimeter=0;" edge="1" parent="1" target="xelcXqQ4Fr27mkAW_xC8-18" source="xelcXqQ4Fr27mkAW_xC8-12">
          <mxGeometry width="50" height="50" relative="1" as="geometry">
            <mxPoint x="-200" y="294" as="sourcePoint" />
            <mxPoint x="-48" y="289" as="targetPoint" />
          </mxGeometry>
        </mxCell>
        <mxCell id="xelcXqQ4Fr27mkAW_xC8-21" value="1" style="ellipse;whiteSpace=wrap;html=1;aspect=fixed;" vertex="1" parent="1">
          <mxGeometry x="80" y="160" width="40" height="40" as="geometry" />
        </mxCell>
        <mxCell id="xelcXqQ4Fr27mkAW_xC8-22" value="3" style="ellipse;whiteSpace=wrap;html=1;aspect=fixed;" vertex="1" parent="1">
          <mxGeometry x="80" y="210" width="40" height="40" as="geometry" />
        </mxCell>
        <mxCell id="xelcXqQ4Fr27mkAW_xC8-23" value="4" style="ellipse;whiteSpace=wrap;html=1;aspect=fixed;" vertex="1" parent="1">
          <mxGeometry x="80" y="260" width="40" height="40" as="geometry" />
        </mxCell>
        <mxCell id="xelcXqQ4Fr27mkAW_xC8-24" value="2" style="ellipse;whiteSpace=wrap;html=1;aspect=fixed;" vertex="1" parent="1">
          <mxGeometry x="80" y="310" width="40" height="40" as="geometry" />
        </mxCell>
        <mxCell id="xelcXqQ4Fr27mkAW_xC8-25" value="5" style="ellipse;whiteSpace=wrap;html=1;aspect=fixed;" vertex="1" parent="1">
          <mxGeometry x="80" y="360" width="40" height="40" as="geometry" />
        </mxCell>
        <mxCell id="xelcXqQ4Fr27mkAW_xC8-26" value="1" style="ellipse;whiteSpace=wrap;html=1;aspect=fixed;fillColor=light-dark(#FF3333,#FF3333);" vertex="1" parent="1">
          <mxGeometry x="280" y="160" width="40" height="40" as="geometry" />
        </mxCell>
        <mxCell id="xelcXqQ4Fr27mkAW_xC8-27" value="3" style="ellipse;whiteSpace=wrap;html=1;aspect=fixed;fillColor=light-dark(#00CC00,#00CC00);" vertex="1" parent="1">
          <mxGeometry x="280" y="210" width="40" height="40" as="geometry" />
        </mxCell>
        <mxCell id="xelcXqQ4Fr27mkAW_xC8-28" value="4" style="ellipse;whiteSpace=wrap;html=1;aspect=fixed;fillColor=light-dark(#FF3333,#FF3333);" vertex="1" parent="1">
          <mxGeometry x="280" y="260" width="40" height="40" as="geometry" />
        </mxCell>
        <mxCell id="xelcXqQ4Fr27mkAW_xC8-29" value="2" style="ellipse;whiteSpace=wrap;html=1;aspect=fixed;fillColor=light-dark(#00CC00,#00CC00);" vertex="1" parent="1">
          <mxGeometry x="280" y="310" width="40" height="40" as="geometry" />
        </mxCell>
        <mxCell id="xelcXqQ4Fr27mkAW_xC8-30" value="5" style="ellipse;whiteSpace=wrap;html=1;aspect=fixed;fillColor=light-dark(#FF33FF,#FF33FF);" vertex="1" parent="1">
          <mxGeometry x="280" y="360" width="40" height="40" as="geometry" />
        </mxCell>
        <mxCell id="xelcXqQ4Fr27mkAW_xC8-36" value="1" style="ellipse;whiteSpace=wrap;html=1;aspect=fixed;fillColor=light-dark(#FF3333,#FF3333);" vertex="1" parent="1">
          <mxGeometry x="443" y="220" width="40" height="40" as="geometry" />
        </mxCell>
        <mxCell id="xelcXqQ4Fr27mkAW_xC8-37" value="3" style="ellipse;whiteSpace=wrap;html=1;aspect=fixed;fillColor=light-dark(#00CC00,#00CC00);" vertex="1" parent="1">
          <mxGeometry x="523" y="220" width="40" height="40" as="geometry" />
        </mxCell>
        <mxCell id="xelcXqQ4Fr27mkAW_xC8-38" value="4" style="ellipse;whiteSpace=wrap;html=1;aspect=fixed;fillColor=light-dark(#FF3333,#FF3333);" vertex="1" parent="1">
          <mxGeometry x="443" y="270" width="40" height="40" as="geometry" />
        </mxCell>
        <mxCell id="xelcXqQ4Fr27mkAW_xC8-39" value="2" style="ellipse;whiteSpace=wrap;html=1;aspect=fixed;fillColor=light-dark(#00CC00,#00CC00);" vertex="1" parent="1">
          <mxGeometry x="523" y="270" width="40" height="40" as="geometry" />
        </mxCell>
        <mxCell id="xelcXqQ4Fr27mkAW_xC8-40" value="5" style="ellipse;whiteSpace=wrap;html=1;aspect=fixed;fillColor=light-dark(#FF33FF,#FF33FF);" vertex="1" parent="1">
          <mxGeometry x="523" y="320" width="40" height="40" as="geometry" />
        </mxCell>
        <mxCell id="xelcXqQ4Fr27mkAW_xC8-41" value="&lt;div&gt;&lt;br&gt;&lt;/div&gt;" style="ellipse;whiteSpace=wrap;html=1;aspect=fixed;fillColor=light-dark(#FF3333,#FF3333);" vertex="1" parent="1">
          <mxGeometry x="645" y="230" width="40" height="40" as="geometry" />
        </mxCell>
        <mxCell id="xelcXqQ4Fr27mkAW_xC8-44" value="" style="ellipse;whiteSpace=wrap;html=1;aspect=fixed;fillColor=light-dark(#00CC00,#00CC00);" vertex="1" parent="1">
          <mxGeometry x="725" y="230" width="40" height="40" as="geometry" />
        </mxCell>
        <mxCell id="xelcXqQ4Fr27mkAW_xC8-45" value="" style="ellipse;whiteSpace=wrap;html=1;aspect=fixed;fillColor=light-dark(#FF33FF,#FF33FF);" vertex="1" parent="1">
          <mxGeometry x="725" y="280" width="40" height="40" as="geometry" />
        </mxCell>
        <mxCell id="xelcXqQ4Fr27mkAW_xC8-50" value="&lt;div&gt;&lt;br&gt;&lt;/div&gt;" style="ellipse;whiteSpace=wrap;html=1;aspect=fixed;fillColor=light-dark(#FF3333,#FF3333);" vertex="1" parent="1">
          <mxGeometry x="870" y="240" width="40" height="40" as="geometry" />
        </mxCell>
        <mxCell id="xelcXqQ4Fr27mkAW_xC8-51" value="" style="ellipse;whiteSpace=wrap;html=1;aspect=fixed;fillColor=light-dark(#00CC00,#00CC00);" vertex="1" parent="1">
          <mxGeometry x="950" y="250" width="40" height="40" as="geometry" />
        </mxCell>
        <mxCell id="xelcXqQ4Fr27mkAW_xC8-52" value="" style="ellipse;whiteSpace=wrap;html=1;aspect=fixed;fillColor=light-dark(#FF33FF,#FF33FF);" vertex="1" parent="1">
          <mxGeometry x="910" y="310" width="40" height="40" as="geometry" />
        </mxCell>
        <mxCell id="xelcXqQ4Fr27mkAW_xC8-53" value="" style="curved=1;endArrow=classic;html=1;rounded=0;entryX=1;entryY=1;entryDx=0;entryDy=0;" edge="1" parent="1" target="xelcXqQ4Fr27mkAW_xC8-51">
          <mxGeometry width="50" height="50" relative="1" as="geometry">
            <mxPoint x="950" y="330" as="sourcePoint" />
            <mxPoint x="1000" y="280" as="targetPoint" />
            <Array as="points">
              <mxPoint x="1000" y="330" />
            </Array>
          </mxGeometry>
        </mxCell>
        <mxCell id="xelcXqQ4Fr27mkAW_xC8-54" value="" style="curved=1;endArrow=classic;html=1;rounded=0;exitX=1;exitY=0;exitDx=0;exitDy=0;entryX=0;entryY=0;entryDx=0;entryDy=0;" edge="1" parent="1" source="xelcXqQ4Fr27mkAW_xC8-50" target="xelcXqQ4Fr27mkAW_xC8-51">
          <mxGeometry width="50" height="50" relative="1" as="geometry">
            <mxPoint x="894.1421356237515" y="235.85786437624847" as="sourcePoint" />
            <mxPoint x="950" y="240" as="targetPoint" />
            <Array as="points">
              <mxPoint x="920" y="230" />
              <mxPoint x="950" y="240" />
            </Array>
          </mxGeometry>
        </mxCell>
        <mxCell id="xelcXqQ4Fr27mkAW_xC8-55" value="" style="curved=1;endArrow=classic;html=1;rounded=0;entryX=0.5;entryY=0;entryDx=0;entryDy=0;exitX=0;exitY=1;exitDx=0;exitDy=0;" edge="1" parent="1" source="xelcXqQ4Fr27mkAW_xC8-51" target="xelcXqQ4Fr27mkAW_xC8-52">
          <mxGeometry width="50" height="50" relative="1" as="geometry">
            <mxPoint x="900" y="303" as="sourcePoint" />
            <mxPoint x="934" y="257" as="targetPoint" />
            <Array as="points">
              <mxPoint x="930" y="290" />
            </Array>
          </mxGeometry>
        </mxCell>
        <mxCell id="xelcXqQ4Fr27mkAW_xC8-56" value="" style="shape=flexArrow;endArrow=classic;html=1;rounded=0;" edge="1" parent="1">
          <mxGeometry width="50" height="50" relative="1" as="geometry">
            <mxPoint x="-10" y="280" as="sourcePoint" />
            <mxPoint x="50" y="280" as="targetPoint" />
          </mxGeometry>
        </mxCell>
        <mxCell id="xelcXqQ4Fr27mkAW_xC8-57" value="" style="shape=flexArrow;endArrow=classic;html=1;rounded=0;" edge="1" parent="1">
          <mxGeometry width="50" height="50" relative="1" as="geometry">
            <mxPoint x="170" y="280" as="sourcePoint" />
            <mxPoint x="230" y="280" as="targetPoint" />
          </mxGeometry>
        </mxCell>
        <mxCell id="xelcXqQ4Fr27mkAW_xC8-58" value="" style="shape=flexArrow;endArrow=classic;html=1;rounded=0;" edge="1" parent="1">
          <mxGeometry width="50" height="50" relative="1" as="geometry">
            <mxPoint x="360" y="280" as="sourcePoint" />
            <mxPoint x="420" y="280" as="targetPoint" />
            <Array as="points">
              <mxPoint x="360" y="280" />
            </Array>
          </mxGeometry>
        </mxCell>
        <mxCell id="xelcXqQ4Fr27mkAW_xC8-59" value="" style="shape=flexArrow;endArrow=classic;html=1;rounded=0;" edge="1" parent="1">
          <mxGeometry width="50" height="50" relative="1" as="geometry">
            <mxPoint x="580" y="280" as="sourcePoint" />
            <mxPoint x="640" y="280" as="targetPoint" />
          </mxGeometry>
        </mxCell>
        <mxCell id="xelcXqQ4Fr27mkAW_xC8-60" value="" style="shape=flexArrow;endArrow=classic;html=1;rounded=0;" edge="1" parent="1">
          <mxGeometry width="50" height="50" relative="1" as="geometry">
            <mxPoint x="790" y="280" as="sourcePoint" />
            <mxPoint x="850" y="280" as="targetPoint" />
          </mxGeometry>
        </mxCell>
        <mxCell id="xelcXqQ4Fr27mkAW_xC8-61" value="&lt;font style=&quot;font-size: 18px;&quot;&gt;p = 2&lt;/font&gt;" style="text;html=1;whiteSpace=wrap;strokeColor=none;fillColor=none;align=center;verticalAlign=middle;rounded=0;" vertex="1" parent="1">
          <mxGeometry x="474.5" y="170" width="60" height="30" as="geometry" />
        </mxCell>
        <mxCell id="xelcXqQ4Fr27mkAW_xC8-62" value="&lt;font style=&quot;font-size: 18px;&quot;&gt;Trie&lt;/font&gt;" style="text;html=1;whiteSpace=wrap;strokeColor=none;fillColor=none;align=center;verticalAlign=middle;rounded=0;" vertex="1" parent="1">
          <mxGeometry x="-130" y="380" width="60" height="30" as="geometry" />
        </mxCell>
        <mxCell id="xelcXqQ4Fr27mkAW_xC8-63" value="&lt;font style=&quot;font-size: 18px;&quot;&gt;p-sortable automaton&lt;/font&gt;" style="text;html=1;whiteSpace=wrap;strokeColor=none;fillColor=none;align=center;verticalAlign=middle;rounded=0;" vertex="1" parent="1">
          <mxGeometry x="830" y="380" width="200" height="30" as="geometry" />
        </mxCell>
      </root>
    </mxGraphModel>
  </diagram>
</mxfile>
